<?xml version="1.0" encoding="UTF-8"?>
<svg width="30px" height="30px" viewBox="0 0 30 30" version="1.1" xmlns="http://www.w3.org/2000/svg" xmlns:xlink="http://www.w3.org/1999/xlink">
    <!-- Generator: Sketch 50 (54983) - http://www.bohemiancoding.com/sketch -->
    <title>fb-sm</title>
    <desc>Created with Sketch.</desc>
    <defs></defs>
    <g id="Page-1" stroke="none" stroke-width="1" fill="none" fill-rule="evenodd">
        <g id="jo-burnell-post-03" transform="translate(-373.000000, -764.000000)">
            <g id="fb-sm" transform="translate(373.000000, 764.000000)">
                <g id="Layer_1">
                    <path d="M12.8825,23.16 L16.2545,23.16 L16.2545,14.999 L18.504,14.999 L18.802,12.187 L16.2545,12.187 L16.258,10.779 C16.258,10.046 16.328,9.6525 17.38,9.6525 L18.786,9.6525 L18.786,6.84 L16.536,6.84 C13.8335,6.84 12.8825,8.2045 12.8825,10.4985 L12.8825,12.187 L11.198,12.187 L11.198,14.9995 L12.8825,14.9995 L12.8825,23.16 L12.8825,23.16 Z M15,30 C6.716,30 0,23.284 0,15 C0,6.7155 6.716,0 15,0 C23.284,0 30,6.7155 30,15 C30,23.284 23.284,30 15,30 Z" id="Shape" fill="#3A589B"></path>
                    <path d="M12.8825,23.16 L16.2545,23.16 L16.2545,14.999 L18.504,14.999 L18.802,12.187 L16.2545,12.187 L16.258,10.779 C16.258,10.046 16.328,9.6525 17.38,9.6525 L18.786,9.6525 L18.786,6.84 L16.536,6.84 C13.8335,6.84 12.8825,8.2045 12.8825,10.4985 L12.8825,12.187 L11.198,12.187 L11.198,14.9995 L12.8825,14.9995 L12.8825,23.16 L12.8825,23.16 Z" id="Path" fill="#FFFFFF"></path>
                </g>
            </g>
        </g>
    </g>
</svg>