<?xml version="1.0" encoding="UTF-8"?>
<svg width="32px" height="32px" viewBox="0 0 32 32" version="1.1" xmlns="http://www.w3.org/2000/svg" xmlns:xlink="http://www.w3.org/1999/xlink">
    <!-- Generator: Sketch 50 (54983) - http://www.bohemiancoding.com/sketch -->
    <title>JinAndCo logo</title>
    <desc>Created with Sketch.</desc>
    <defs></defs>
    <g id="Page-1" stroke="none" stroke-width="1" fill="none" fill-rule="evenodd">
        <g id="jo-burnell-page-03" transform="translate(-192.000000, -968.000000)">
            <g id="JinAndCo-logo" transform="translate(192.000000, 968.000000)">
                <rect id="Rectangle-path" fill="#0F1031" x="0.00032" y="0" width="31.99936" height="32"></rect>
                <g id="Group" transform="translate(5.120000, 5.120000)" fill="#FFFFFF">
                    <path d="M0.7896,4.54096 L1.43104,4.54096 C1.6184,4.54096 1.74432,4.50592 1.8088,4.43552 C1.87312,4.36512 1.90544,4.2656 1.90544,4.1368 L1.90544,0.08672 L3.8296,0.08672 L3.8296,4.4616 C3.8296,5.0064 3.70496,5.39008 3.456,5.61264 C3.20704,5.83536 2.81024,5.9464 2.26576,5.9464 L0.78976,5.9464 L0.78976,4.54096 L0.7896,4.54096 Z" id="Shape"></path>
                    <polygon id="Shape" points="5.30512 0.08672 7.29088 0.08672 7.29088 5.94656 5.30512 5.94656"></polygon>
                    <polygon id="Shape" points="8.784 0.08672 10.32144 0.08672 11.93776 2.34448 11.93776 0.08672 13.77392 0.08672 13.77392 5.94656 12.22768 5.94656 10.62 3.6976 10.62 5.94656 8.784 5.94656"></polygon>
                    <path d="M2.30928,7.89616 L3.7152,7.89616 L5.93792,13.756 L4.0928,13.756 L3.89968,13.22896 L2.12496,13.22896 L1.93152,13.756 L0.08688,13.756 L2.30928,7.89616 L2.30928,7.89616 Z M3.40752,11.93744 L3.01248,10.90944 L2.6168,11.93744 L3.40752,11.93744 L3.40752,11.93744 Z" id="Shape"></path>
                    <polygon id="Shape" points="6.94816 7.89616 8.4856 7.89616 10.10192 10.15408 10.10192 7.89616 11.93808 7.89616 11.93808 13.756 10.39168 13.756 8.784 11.50688 8.784 13.756 6.94816 13.756"></polygon>
                    <path d="M13.4312,13.756 L13.4312,7.89616 L15.05632,7.89616 C15.60688,7.89616 16.0976,7.9576 16.52784,8.08064 C16.95824,8.20368 17.32128,8.38832 17.61728,8.63424 C17.91312,8.88016 18.1384,9.18624 18.29376,9.552 C18.44912,9.9184 18.52656,10.3416 18.52656,10.8216 C18.52656,11.30192 18.44912,11.72496 18.29376,12.09104 C18.1384,12.45712 17.91312,12.7632 17.61728,13.00928 C17.32128,13.25504 16.9584,13.44112 16.52784,13.56704 C16.0976,13.69312 15.60688,13.756 15.05632,13.756 L13.4312,13.756 L13.4312,13.756 Z M15.30256,12.08672 C15.74176,12.08672 16.08128,11.98272 16.3216,11.77488 C16.56176,11.56688 16.68176,11.24912 16.68176,10.8216 C16.68176,10.39424 16.56176,10.07808 16.3216,9.87296 C16.08128,9.668 15.74176,9.56528 15.30256,9.56528 L15.30256,12.08672 L15.30256,12.08672 Z" id="Shape"></path>
                    <path d="M0.43824,18.63984 C0.43824,18.1712 0.52016,17.74832 0.68432,17.3704 C0.848,16.99248 1.07072,16.6688 1.35184,16.39936 C1.63296,16.13008 1.96096,15.92368 2.33568,15.78016 C2.7104,15.6368 3.10896,15.56512 3.5304,15.56512 C3.86448,15.56512 4.16128,15.59712 4.42208,15.6616 C4.68256,15.72624 4.90656,15.7992 5.09424,15.88128 C5.31088,15.97472 5.4984,16.0776 5.65664,16.18864 L4.73408,17.81392 C4.64032,17.74384 4.53744,17.67664 4.42672,17.612 C4.32704,17.56512 4.208,17.51968 4.07072,17.47568 C3.93296,17.43168 3.77648,17.40976 3.6008,17.40976 C3.41904,17.40976 3.25216,17.44208 3.1,17.5064 C2.94768,17.57056 2.81456,17.65856 2.70016,17.76992 C2.58624,17.88112 2.4968,18.01136 2.43216,18.1608 C2.36768,18.31008 2.33552,18.46976 2.33552,18.63952 C2.33552,18.80944 2.36896,18.96896 2.43664,19.11808 C2.50368,19.26768 2.596,19.39808 2.71328,19.50912 C2.8304,19.62032 2.968,19.70832 3.12608,19.77264 C3.28416,19.83712 3.45712,19.86928 3.64464,19.86928 C3.83168,19.86928 3.99904,19.84608 4.14544,19.79888 C4.29152,19.75216 4.41456,19.69952 4.51424,19.6408 C4.63136,19.5768 4.73392,19.50048 4.8216,19.41248 L5.74416,21.03792 C5.58608,21.16656 5.39872,21.28112 5.18208,21.38064 C4.99456,21.46256 4.76896,21.53872 4.50544,21.60896 C4.24208,21.67904 3.94016,21.71424 3.6008,21.71424 C3.144,21.71424 2.72224,21.63952 2.33552,21.49056 C1.94912,21.34112 1.61504,21.13168 1.33392,20.86208 C1.05312,20.5928 0.83344,20.26928 0.6752,19.89168 C0.51712,19.51408 0.43824,19.09664 0.43824,18.63984 L0.43824,18.63984 Z" id="Shape"></path>
                    <path d="M6.18368,18.63984 C6.18368,18.21808 6.26416,17.82 6.42544,17.44496 C6.5864,17.07024 6.80592,16.74352 7.08432,16.46544 C7.3624,16.18736 7.6888,15.96768 8.06368,15.80656 C8.43856,15.64544 8.83696,15.56512 9.2584,15.56512 C9.68048,15.56512 10.0784,15.64528 10.45328,15.80656 C10.82816,15.96768 11.15488,16.18736 11.43312,16.46544 C11.7112,16.74352 11.93072,17.07024 12.092,17.44496 C12.25296,17.82 12.33344,18.21808 12.33344,18.63984 C12.33344,19.0616 12.25296,19.45984 12.092,19.83456 C11.93072,20.2096 11.7112,20.536 11.43312,20.81408 C11.15504,21.09248 10.82832,21.31184 10.45328,21.47296 C10.07856,21.63424 9.68048,21.71456 9.2584,21.71456 C8.83696,21.71456 8.43856,21.63424 8.06368,21.47296 C7.68896,21.31184 7.36256,21.09248 7.08432,20.81408 C6.80592,20.536 6.5864,20.2096 6.42544,19.83456 C6.26432,19.45984 6.18368,19.0616 6.18368,18.63984 L6.18368,18.63984 Z M8.02848,18.63984 C8.02848,18.80976 8.0608,18.96928 8.12512,19.1184 C8.18976,19.268 8.2776,19.3984 8.38896,19.50944 C8.5,19.62064 8.6304,19.70864 8.77952,19.77296 C8.9288,19.83744 9.08832,19.8696 9.25824,19.8696 C9.42816,19.8696 9.58768,19.8376 9.73728,19.77296 C9.88672,19.70864 10.01696,19.62064 10.12816,19.50944 C10.23952,19.3984 10.3272,19.26784 10.39168,19.1184 C10.456,18.96912 10.48832,18.80976 10.48832,18.63984 C10.48832,18.46992 10.456,18.31024 10.39168,18.16112 C10.3272,18.01152 10.23936,17.88144 10.12816,17.77024 C10.0168,17.65888 9.88672,17.57088 9.73728,17.50672 C9.58768,17.4424 9.42816,17.41008 9.25824,17.41008 C9.08832,17.41008 8.9288,17.4424 8.77952,17.50672 C8.63024,17.57088 8.5,17.65888 8.38896,17.77024 C8.2776,17.88144 8.1896,18.01168 8.12512,18.16112 C8.0608,18.31024 8.02848,18.47008 8.02848,18.63984 L8.02848,18.63984 Z" id="Shape"></path>
                </g>
            </g>
        </g>
    </g>
</svg>