<?xml version="1.0" encoding="UTF-8"?>
<svg width="30px" height="30px" viewBox="0 0 30 30" version="1.1" xmlns="http://www.w3.org/2000/svg" xmlns:xlink="http://www.w3.org/1999/xlink">
    <!-- Generator: Sketch 50 (54983) - http://www.bohemiancoding.com/sketch -->
    <title>linkedin</title>
    <desc>Created with Sketch.</desc>
    <defs></defs>
    <g id="Page-1" stroke="none" stroke-width="1" fill="none" fill-rule="evenodd">
        <g id="jo-burnell-post-03" transform="translate(-459.000000, -764.000000)">
            <g id="linkedin" transform="translate(459.000000, 764.000000)">
                <circle id="Oval-1-Copy-5" fill="#0976B4" cx="15" cy="15" r="15"></circle>
                <path d="M9.15654762,11.1286448 C10.1892143,11.1286448 11.026381,10.3651898 11.026381,9.42238288 C11.026381,8.47874178 10.1892143,7.71428571 9.15654762,7.71428571 C8.12288095,7.71428571 7.28571429,8.47874178 7.28571429,9.42238288 C7.28571429,10.3651898 8.12288095,11.1286448 9.15654762,11.1286448" id="Fill-182" fill="#FFFFFF"></path>
                <polygon id="Fill-183" fill="#FFFFFF" points="7.71428571 22.10473 11.0692857 22.10473 11.0692857 12.4285714 7.71428571 12.4285714"></polygon>
                <path d="M15.7780714,16.7230438 C15.7780714,15.613398 16.3030714,14.5282774 17.5584048,14.5282774 C18.8137381,14.5282774 19.1224048,15.613398 19.1224048,16.6965164 L19.1224048,21.9811402 L22.4624048,21.9811402 L22.4624048,16.48046 C22.4624048,12.658847 20.2034048,12 18.8137381,12 C17.4252381,12 16.6594048,12.4696516 15.7780714,13.6076601 L15.7780714,12.3049816 L12.4285714,12.3049816 L12.4285714,21.9811402 L15.7780714,21.9811402 L15.7780714,16.7230438 Z" id="Fill-184" fill="#FFFFFF"></path>
            </g>
        </g>
    </g>
</svg>