<?xml version="1.0" encoding="UTF-8"?>
<svg width="30px" height="30px" viewBox="0 0 30 30" version="1.1" xmlns="http://www.w3.org/2000/svg" xmlns:xlink="http://www.w3.org/1999/xlink">
    <!-- Generator: Sketch 50 (54983) - http://www.bohemiancoding.com/sketch -->
    <title>pinterest</title>
    <desc>Created with Sketch.</desc>
    <defs></defs>
    <g id="Page-1" stroke="none" stroke-width="1" fill="none" fill-rule="evenodd">
        <g id="jo-burnell-post-03" transform="translate(-502.000000, -764.000000)">
            <g id="pinterest" transform="translate(502.000000, 764.000000)">
                <circle id="Oval-1-Copy-4" fill="#CC2127" cx="15" cy="15" r="15"></circle>
                <path d="M15.2142857,7.28571429 C11.0724524,7.28571429 7.71428571,10.6473523 7.71428571,14.793467 C7.71428571,17.8838249 9.58011905,20.5378989 12.2447857,21.6904224 C12.225619,21.1670486 12.2442857,20.5429041 12.376619,19.9769864 C12.522119,19.366189 13.346119,15.8712466 13.346119,15.8712466 C13.346119,15.8712466 13.1054524,15.3895826 13.1054524,14.678515 C13.1054524,13.5630298 13.752619,12.7281677 14.5569524,12.7281677 C15.2417857,12.7281677 15.5727857,13.2440337 15.5727857,13.8605036 C15.5727857,14.5492148 15.1337857,15.5792785 14.907119,16.5334304 C14.7194524,17.332589 15.309119,17.9850961 16.0964524,17.9850961 C17.5214524,17.9850961 18.4812857,16.1517029 18.4812857,13.9782919 C18.4812857,12.3277542 17.3717857,11.0909771 15.3502857,11.0909771 C13.0677857,11.0909771 11.6437857,12.7955706 11.6437857,14.7000372 C11.6437857,15.3562148 11.8377857,15.8198602 12.1412857,16.1777298 C12.2804524,16.3423998 12.2992857,16.4088017 12.2484524,16.5984976 C12.2117857,16.7363066 12.1307857,17.0699845 12.0959524,17.2032888 C12.046119,17.3939857 11.8909524,17.4608882 11.7187857,17.3908158 C10.6677857,16.9618729 10.177119,15.8088489 10.177119,14.5130108 C10.177119,12.3721333 11.980619,9.80548294 15.5567857,9.80548294 C18.4314524,9.80548294 20.3224524,11.8877999 20.3224524,14.1212729 C20.3224524,17.0786601 18.6804524,19.2859394 16.261119,19.2859394 C15.4482857,19.2859394 14.6832857,18.8459851 14.4227857,18.3474703 C14.4227857,18.3474703 13.9842857,20.0819281 13.8927857,20.4182754 C13.7347857,20.9906998 13.4304524,21.5626237 13.1484524,22.0129221 C13.8039524,22.200449 14.4969524,22.3012198 15.2142857,22.3012198 C19.356119,22.3012198 22.7142857,18.9395818 22.7142857,14.793467 C22.7142857,10.6473523 19.356119,7.28571429 15.2142857,7.28571429" id="Fill-15" fill="#FFFFFF"></path>
            </g>
        </g>
    </g>
</svg>