<?xml version="1.0" encoding="UTF-8"?>
<svg width="30px" height="30px" viewBox="0 0 30 30" version="1.1" xmlns="http://www.w3.org/2000/svg" xmlns:xlink="http://www.w3.org/1999/xlink">
    <!-- Generator: Sketch 50 (54983) - http://www.bohemiancoding.com/sketch -->
    <title>twitter-sm</title>
    <desc>Created with Sketch.</desc>
    <defs></defs>
    <g id="Page-1" stroke="none" stroke-width="1" fill="none" fill-rule="evenodd">
        <g id="jo-burnell-post-03" transform="translate(-416.000000, -779.000000)">
            <g id="twitter-sm" transform="translate(416.000000, 779.000000)">
                <path d="M15,30 C6.716,30 0,23.284 0,15 C0,6.7155 6.716,0 15,0 C23.284,0 30,6.7155 30,15 C30,23.284 23.284,30 15,30 Z" id="Shape" fill="#34B3E5"></path>
                <path d="M17.0835,9.1415 C15.774,9.618 14.9465,10.847 15.0405,12.192 L15.072,12.711 L14.548,12.6475 C12.6415,12.404 10.9755,11.578 9.561,10.19 L8.8695,9.5015 L8.6915,10.01 C8.3145,11.1435 8.5555,12.3405 9.341,13.1455 C9.76,13.5905 9.6655,13.654 8.943,13.389 C8.6915,13.3045 8.4715,13.241 8.4505,13.2725 C8.3775,13.347 8.6285,14.3105 8.8275,14.692 C9.1,15.222 9.655,15.7405 10.263,16.048 L10.7765,16.2915 L10.169,16.302 C9.5825,16.302 9.5615,16.3125 9.6245,16.5355 C9.834,17.224 10.6615,17.955 11.5835,18.273 L12.233,18.495 L11.6675,18.834 C10.8295,19.322 9.8445,19.597 8.8595,19.6175 C8.3875,19.628 8,19.6705 8,19.7025 C8,19.808 9.2785,20.401 10.022,20.6345 C12.2535,21.323 14.9045,21.026 16.895,19.8505 C18.3095,19.0135 19.7235,17.3505 20.384,15.74 C20.7405,14.8825 21.0965,13.3145 21.0965,12.563 C21.0965,12.0755 21.128,12.012 21.7145,11.4295 C22.0605,11.0905 22.385,10.72 22.448,10.614 C22.553,10.4125 22.542,10.4125 22.008,10.5925 C21.1175,10.9105 20.9915,10.868 21.432,10.3915 C21.7565,10.0525 22.1445,9.438 22.1445,9.258 C22.1445,9.2265 21.9875,9.279 21.809,9.3745 C21.6205,9.4805 21.2015,9.6395 20.887,9.7345 L20.3215,9.915 L19.808,9.565 C19.525,9.3745 19.1275,9.1625 18.9175,9.099 C18.383,8.951 17.5655,8.972 17.0835,9.1415 Z" id="Path" fill="#FFFFFF"></path>
            </g>
        </g>
    </g>
</svg>